<svg version="1.2" baseProfile="tiny-ps" xmlns="http://www.w3.org/2000/svg" viewBox="0 0 35 25" width="35" height="25">
	<title>email-icon</title>
	<style>
		tspan { white-space:pre }
		.shp0 { fill: #211e3b } 
	</style>
	<path id="Path 83" class="shp0" d="M34.36 2.72C34.36 2.62 34.35 2.51 34.35 2.36C34.22 2.46 34.13 2.52 34.05 2.59C28.74 6.9 23.42 11.22 18.11 15.53C17.44 16.08 16.91 16.08 16.25 15.53C12.21 12.21 8.17 8.88 4.13 5.55C2.78 4.43 1.42 3.32 0 2.15L0 2.55C0 9.4 0 16.25 0 23.09C0 24.05 0.48 24.53 1.45 24.53C11.94 24.53 22.43 24.53 32.92 24.53C33.89 24.53 34.36 24.05 34.36 23.09C34.37 16.3 34.37 9.51 34.36 2.72Z" />
	<path id="Path 84" class="shp0" d="M33.25 0.07L33.21 0L1.25 0C6.6 4.4 11.89 8.76 17.18 13.12C22.56 8.76 27.9 4.41 33.25 0.07Z" />
</svg>