<svg version="1.2" baseProfile="tiny-ps" xmlns="http://www.w3.org/2000/svg" viewBox="0 0 10 19" width="10" height="19">
	<title>facebook</title>
	<style>
		tspan { white-space:pre }
		.shp0 { fill: #ffffff } 
	</style>
	<path id="Path 86" class="shp0" d="M2.71 19.06L6.03 19.06L6.03 10.7L8.63 10.7C8.77 9.59 8.91 8.5 9.05 7.38L6.06 7.38C6.04 7.36 6.03 7.35 6.03 7.34C6.04 6.45 6.02 5.56 6.06 4.68C6.09 3.98 6.5 3.58 7.19 3.52C7.72 3.48 8.25 3.49 8.77 3.48C8.96 3.48 9.14 3.48 9.32 3.48L9.32 0.53C9.28 0.52 9.25 0.5 9.21 0.5C8.33 0.46 7.45 0.39 6.57 0.4C5.66 0.41 4.81 0.68 4.1 1.28C3.19 2.06 2.79 3.09 2.73 4.24C2.68 5.21 2.71 6.19 2.7 7.16C2.7 7.23 2.7 7.3 2.7 7.39L0 7.39L0 10.71L2.71 10.71L2.71 19.06Z" />
</svg>