<svg version="1.2" baseProfile="tiny-ps" xmlns="http://www.w3.org/2000/svg" viewBox="0 0 19 19" width="19" height="19">
	<title>instagram</title>
	<style>
		tspan { white-space:pre }
		.shp0 { fill: #f1f0f5 } 
	</style>
	<g id="Group 94">
		<path id="Path 88" fill-rule="evenodd" class="shp0" d="M18.46 12.87C18.45 13.48 18.41 14.1 18.31 14.7C18.12 15.94 17.57 16.99 16.6 17.8C15.66 18.59 14.54 18.9 13.34 18.98C12.91 19.01 12.47 19.03 12.03 19.06L6.46 19.06C6.35 19.05 6.24 19.03 6.12 19.03C5.39 19.01 4.66 18.98 3.94 18.8C2.4 18.43 1.26 17.55 0.59 16.11C0.17 15.21 0.04 14.25 0.03 13.27C0.01 11.26 -0.01 9.25 0 7.23C0.01 6.27 0.01 5.3 0.25 4.35C0.65 2.71 1.6 1.52 3.18 0.88C4.02 0.53 4.91 0.44 5.81 0.43C7.69 0.41 9.57 0.39 11.45 0.4C12.44 0.4 13.43 0.39 14.4 0.61C16.2 1 17.45 2.04 18.08 3.8C18.39 4.65 18.46 5.53 18.46 6.42C18.47 8.57 18.48 10.72 18.46 12.87ZM16.82 7.81C16.82 6.91 16.79 6 16.68 5.1C16.51 3.6 15.57 2.58 14.11 2.29C13.47 2.16 12.8 2.12 12.15 2.11C10.42 2.08 8.68 2.08 6.95 2.1C6.14 2.11 5.33 2.14 4.54 2.26C3.12 2.47 2.16 3.39 1.88 4.8C1.75 5.41 1.71 6.04 1.7 6.66C1.67 8.17 1.66 9.67 1.67 11.18C1.68 12.22 1.71 13.27 1.81 14.31C1.92 15.38 2.42 16.25 3.37 16.8C3.95 17.14 4.59 17.28 5.25 17.3C6.58 17.35 7.91 17.37 9.25 17.41L9.25 17.38C9.73 17.38 10.22 17.39 10.71 17.37C11.76 17.34 12.82 17.35 13.86 17.22C15.29 17.03 16.25 16.2 16.6 14.77C16.73 14.2 16.78 13.6 16.79 13.01C16.83 11.27 16.84 9.54 16.82 7.81Z" />
		<path id="Path 89" fill-rule="evenodd" class="shp0" d="M14 9.71C14.01 12.38 11.87 14.56 9.25 14.56C6.62 14.56 4.49 12.39 4.49 9.72C4.49 7.05 6.63 4.88 9.25 4.89C11.88 4.9 13.99 7.04 14 9.71ZM12.32 9.73C12.33 7.99 10.96 6.59 9.25 6.59C7.54 6.58 6.16 7.98 6.16 9.73C6.17 11.46 7.54 12.85 9.24 12.85C10.95 12.85 12.32 11.46 12.32 9.73Z" />
		<path id="Path 90" class="shp0" d="M14.21 3.63C13.6 3.61 13.09 4.09 13.08 4.7C13.06 5.32 13.55 5.83 14.16 5.84C14.78 5.85 15.28 5.38 15.29 4.77C15.31 4.14 14.83 3.64 14.21 3.63Z" />
	</g>
</svg>