<svg version="1.2" baseProfile="tiny-ps" xmlns="http://www.w3.org/2000/svg" viewBox="0 0 19 20" width="19" height="20">
	<title>linked-in</title>
	<style>
		tspan { white-space:pre }
		.shp0 { fill: #edeaf1 } 
	</style>
	<g id="Group 95">
		<path id="Path 91" class="shp0" d="M3.03 0.54C2.87 0.48 2.69 0.44 2.53 0.4L1.98 0.4C1.6 0.48 1.24 0.59 0.92 0.83C0.45 1.19 0.15 1.66 0.03 2.25C0.03 2.29 0.01 2.33 0 2.37L0 2.92C0.01 2.97 0.03 3.02 0.04 3.08C0.25 4.14 1.2 4.93 2.26 4.92C3.33 4.9 4.27 4.12 4.46 3.07C4.66 1.98 4.06 0.92 3.03 0.54Z" />
		<path id="Path 92" class="shp0" d="M18.73 11.61C18.72 10.75 18.63 9.89 18.37 9.06C18.07 8.05 17.52 7.23 16.56 6.74C15.77 6.34 14.92 6.23 14.05 6.25C12.51 6.28 11.27 6.86 10.44 8.21C10.42 8.23 10.42 8.26 10.42 8.28L10.36 8.25L10.36 6.56L6.64 6.56L6.64 19.06L10.51 19.06L10.51 18.83C10.51 16.86 10.5 14.89 10.51 12.92C10.51 12.46 10.55 11.98 10.62 11.52C10.81 10.38 11.43 9.78 12.54 9.68C13.68 9.57 14.47 10.01 14.71 11.21C14.8 11.64 14.85 12.08 14.85 12.51C14.86 14.62 14.86 16.73 14.86 18.84C14.86 18.91 14.86 18.98 14.86 19.05L18.73 19.05C18.73 19.02 18.74 19 18.74 18.98C18.73 16.52 18.74 14.06 18.73 11.61Z" />
		<path id="Path 93" class="shp0" d="M0.32 19.05L4.19 19.05L4.19 6.56L0.32 6.56L0.32 19.05Z" />
	</g>
</svg>