<svg version="1.2" baseProfile="tiny-ps" xmlns="http://www.w3.org/2000/svg" viewBox="0 0 25 32" width="25" height="32">
	<title>location-icon</title>
	<style>
		tspan { white-space:pre }
		.shp0 { fill: #211e3b } 
	</style>
	<path id="Path 85" fill-rule="evenodd" class="shp0" d="M2.6 19.73C0.83 17.38 -0.12 14.75 0.01 11.8C0.23 7.14 2.43 3.66 6.49 1.37C8.26 0.37 10.2 -0.06 11.95 -0.07C18.18 -0.07 23.31 4.24 24.28 10.1C24.85 13.5 24.13 16.63 22.09 19.4C19.05 23.52 15.97 27.6 12.9 31.69C12.82 31.8 12.66 31.86 12.52 31.89C11.93 32.01 11.57 31.75 11.2 31.25C8.36 27.4 5.49 23.56 2.6 19.73ZM8.17 12.14C8.16 14.37 9.97 16.21 12.19 16.22C14.44 16.24 16.28 14.42 16.29 12.19C16.3 9.96 14.49 8.12 12.27 8.11C10.03 8.09 8.18 9.9 8.17 12.14Z" />
</svg>