<svg version="1.2" baseProfile="tiny-ps" xmlns="http://www.w3.org/2000/svg" viewBox="0 0 109 97" width="109" height="97">
	<title>Group 57</title>
	<style>
		tspan { white-space:pre }
		.shp0 { fill: #ffffff } 
	</style>
	<g id="Group 57">
		<path id="Path 53" fill-rule="evenodd" class="shp0" d="M108.51 48.18C108.51 55 100.42 61.66 87.98 65.78C87.32 66 86.65 66.21 85.96 66.41C86.2 67.4 86.42 68.36 86.61 69.31C89.07 81.71 87.18 91.91 81.35 95.28C75.72 98.54 66.61 95.34 57.39 87.4C56.39 86.54 55.41 85.64 54.46 84.73C53.7 85.46 52.94 86.15 52.19 86.81C42.67 95.13 32.89 98.59 27.07 95.23C21.43 91.98 19.65 82.48 21.92 70.53C22.17 69.23 22.46 67.94 22.78 66.66C21.79 66.38 20.81 66.07 19.84 65.74C7.88 61.65 0 54.91 0 48.18C0 41.67 7.34 35.39 18.82 31.39C20.11 30.94 21.45 30.52 22.84 30.12C22.54 28.93 22.28 27.73 22.04 26.53C19.66 14.37 21.33 4.64 26.99 1.37C32.89 -2.04 42.71 1.62 52.51 10.32C53.12 10.87 53.72 11.42 54.31 11.98C55.19 11.13 56.09 10.31 57.01 9.5C66.36 1.37 75.62 -2.04 81.28 1.23C87.18 4.63 88.91 14.97 86.26 27.81C86.1 28.61 85.92 29.4 85.72 30.19C86.9 30.53 88.06 30.9 89.22 31.29C100.94 35.33 108.51 41.65 108.51 48.18ZM57.56 15.29C60.66 18.63 63.75 22.49 66.73 26.74C71.85 27.22 76.73 27.99 81.24 29.03C81.41 28.31 81.57 27.59 81.72 26.87C84.01 15.79 82.59 7.34 78.96 5.24C75.55 3.28 68.06 6.03 60.05 13C59.2 13.74 58.37 14.51 57.56 15.29ZM28.52 63.32C31.62 64 34.97 64.53 38.52 64.93C37.34 63.1 36.21 61.24 35.12 59.36C34.05 57.51 33.02 55.64 32.04 53.74C30.66 57.01 29.48 60.23 28.52 63.32ZM35.1 37.23C36.16 35.38 37.27 33.56 38.42 31.76C34.98 32.19 31.68 32.76 28.59 33.45C29.53 36.49 30.68 39.64 32.03 42.84C33.01 40.95 34.03 39.07 35.1 37.23ZM39.13 57.03C40.79 59.9 42.56 62.71 44.43 65.45C47.59 65.65 50.88 65.76 54.26 65.76C57.65 65.76 60.97 65.64 64.19 65.41C66.02 62.67 67.75 59.86 69.4 57.01L69.4 57.01C71.06 54.14 72.61 51.21 74.06 48.23C72.6 45.27 71.04 42.37 69.38 39.52C67.74 36.68 66 33.89 64.15 31.17C60.93 30.93 57.62 30.8 54.26 30.8C50.91 30.8 47.6 30.92 44.38 31.17C42.52 33.89 40.76 36.69 39.11 39.54L39.11 39.54C37.47 42.4 35.93 45.32 34.5 48.29C35.93 51.26 37.47 54.18 39.13 57.03ZM70.08 64.85C73.66 64.42 77.06 63.84 80.2 63.12C79.23 60.08 78.01 56.88 76.56 53.58C75.55 55.52 74.51 57.43 73.41 59.32C72.34 61.19 71.23 63.03 70.08 64.85ZM79.99 33.5C76.87 32.79 73.56 32.21 70.1 31.77C71.23 33.56 72.33 35.36 73.39 37.2C74.47 39.06 75.51 40.94 76.52 42.84C77.89 39.63 79.05 36.5 79.99 33.5ZM47.87 26.31C52.14 26.11 56.42 26.11 60.69 26.31C58.59 23.51 56.45 20.92 54.31 18.61C52.14 20.95 49.98 23.53 47.87 26.31ZM26.59 25.64L26.59 25.64C26.81 26.76 27.06 27.87 27.33 28.98C31.83 27.96 36.71 27.2 41.81 26.73C44.79 22.53 47.91 18.68 51.06 15.29C50.51 14.77 49.97 14.27 49.43 13.79C40.97 6.28 32.94 3.28 29.31 5.38C25.9 7.35 24.55 15.22 26.59 25.64ZM29.37 48.29C27.23 43.62 25.44 39.01 24.09 34.59C22.83 34.94 21.58 35.34 20.35 35.76C10.53 39.19 4.64 44.23 4.64 48.18C4.64 50.04 5.99 52.33 8.69 54.63C11.68 57.19 16.05 59.55 21.34 61.35C22.23 61.66 23.12 61.93 24.02 62.19C25.39 57.72 27.2 53.03 29.37 48.29ZM51.21 81.42C48.04 78.02 44.9 74.13 41.89 69.91C36.64 69.48 31.72 68.78 27.27 67.79C26.97 68.99 26.71 70.19 26.48 71.4C24.54 81.62 25.96 89.24 29.38 91.21C30.99 92.14 33.65 92.11 36.99 90.93L36.99 90.93C40.71 89.61 44.93 87 49.14 83.32C49.85 82.7 50.53 82.07 51.21 81.42ZM60.81 70.25C58.65 70.34 56.47 70.39 54.26 70.39C52.1 70.39 49.98 70.35 47.91 70.27C50.05 73.09 52.24 75.71 54.44 78.08C56.56 75.74 58.69 73.12 60.81 70.25ZM82.06 70.21C81.89 69.35 81.7 68.48 81.48 67.59C76.98 68.62 72.03 69.39 66.78 69.85C63.8 74.17 60.74 78.06 57.68 81.4C58.6 82.28 59.51 83.11 60.41 83.89C68.3 90.67 75.61 93.25 79.03 91.27C80.64 90.34 81.94 88.02 82.58 84.53C83.3 80.66 83.15 75.7 82.06 70.21ZM103.88 48.18C103.88 44.24 97.75 39.13 87.71 35.67C86.67 35.32 85.59 34.98 84.48 34.66C83.15 38.98 81.37 43.54 79.2 48.2C81.47 52.98 83.32 57.6 84.7 61.95C85.32 61.77 85.93 61.58 86.52 61.38L86.52 61.38C97.26 57.82 103.88 52.37 103.88 48.18Z" />
		<path id="Path 54" class="shp0" d="M54.26 57.87C59.61 57.87 63.94 53.53 63.94 48.18C63.94 42.83 59.61 38.49 54.26 38.49C48.9 38.49 44.57 42.83 44.57 48.18C44.57 53.53 48.9 57.87 54.26 57.87Z" />
	</g>
</svg>