<svg version="1.2" baseProfile="tiny-ps" xmlns="http://www.w3.org/2000/svg" viewBox="0 0 22 19" width="22" height="19">
	<title>twitter</title>
	<style>
		tspan { white-space:pre }
		.shp0 { fill: #ffffff } 
	</style>
	<path id="Path 87" fill-rule="evenodd" class="shp0" d="M0.19 7.7C0.12 7.47 0.06 7.23 0 7L0 6.7C0.23 6.21 0.46 6.11 0.99 6.27C1.15 6.32 1.32 6.37 1.49 6.42C1.37 6.07 1.24 5.75 1.15 5.42C0.86 4.21 1 3.06 1.69 2C2.08 1.4 2.61 1.42 2.96 2.04C3.59 3.16 4.38 4.14 5.39 4.94C6.72 6.01 8.24 6.65 9.93 6.88C10.02 6.89 10.11 6.9 10.22 6.91C10.24 6.57 10.24 6.23 10.27 5.89C10.47 3.96 11.71 2.09 13.68 1.48C14.81 1.13 15.92 1.2 16.99 1.7C17.11 1.76 17.21 1.76 17.34 1.69C18.15 1.29 18.96 0.89 19.78 0.5C20.12 0.33 20.42 0.37 20.62 0.6C20.83 0.85 20.82 1.11 20.69 1.38C20.39 1.97 20.1 2.56 19.81 3.15C19.78 3.21 19.76 3.27 19.71 3.37C20.05 3.34 20.35 3.32 20.65 3.29C20.95 3.26 21.2 3.32 21.36 3.58C21.52 3.84 21.48 4.09 21.32 4.33C21.03 4.79 20.74 5.25 20.46 5.72C20.41 5.81 20.38 5.95 20.4 6.05C20.73 8.26 20.52 10.4 19.62 12.45C19.12 13.6 18.42 14.62 17.6 15.56C15.88 17.56 13.65 18.56 11.08 18.9C8.18 19.29 5.35 18.94 2.59 17.94C2 17.72 1.42 17.45 0.91 17.06C0.83 17 0.76 16.94 0.69 16.87C0.47 16.67 0.39 16.42 0.49 16.13C0.59 15.87 0.81 15.73 1.14 15.72C1.62 15.72 2.1 15.74 2.58 15.72C3.65 15.68 4.69 15.49 5.63 14.93C5.84 14.81 6.04 14.67 6.25 14.53C5.76 14.36 5.29 14.22 4.83 14.04C3.83 13.66 2.92 13.12 2.15 12.36C1.96 12.16 1.83 11.95 1.91 11.66C1.99 11.38 2.19 11.24 2.46 11.18C2.65 11.14 2.83 11.08 3.05 11.02C2.79 10.85 2.55 10.72 2.32 10.56C1.27 9.86 0.56 8.9 0.19 7.7ZM1.59 7.8C1.61 7.85 1.64 7.91 1.66 7.96C2.08 8.79 2.72 9.4 3.54 9.8C3.96 10.01 4.41 10.15 4.85 10.31C5.1 10.4 5.26 10.57 5.29 10.84C5.33 11.12 5.21 11.33 4.98 11.48C4.91 11.53 4.83 11.57 4.75 11.62C4.45 11.78 4.16 11.93 3.84 12.11C4.07 12.24 4.27 12.37 4.49 12.49C5.46 13 6.5 13.3 7.59 13.45C7.88 13.5 8.13 13.61 8.23 13.91C8.33 14.21 8.2 14.43 8 14.65C6.84 15.89 5.44 16.67 3.74 16.9C3.71 16.9 3.68 16.92 3.62 16.95C4.94 17.39 6.27 17.63 7.63 17.73C8.82 17.82 10.01 17.79 11.2 17.6C12.55 17.38 13.82 16.95 14.98 16.2C15.9 15.59 16.63 14.79 17.29 13.91C18.1 12.83 18.68 11.63 19 10.31C19.35 8.88 19.32 7.46 19.1 6.02C19.05 5.73 19.09 5.47 19.26 5.23C19.37 5.06 19.47 4.88 19.6 4.67C19.41 4.69 19.25 4.7 19.1 4.71C18.94 4.72 18.78 4.74 18.62 4.74C18.29 4.74 18.02 4.52 18 4.21C17.99 4.05 18.03 3.88 18.1 3.73C18.29 3.31 18.5 2.91 18.7 2.5L18.67 2.47C18.31 2.64 17.94 2.8 17.6 2.99C17.26 3.18 16.96 3.15 16.64 2.96C15.93 2.55 15.17 2.45 14.37 2.62C12.83 2.94 11.8 4.31 11.57 5.84C11.49 6.35 11.51 6.86 11.6 7.38C11.69 7.9 11.41 8.28 10.94 8.24C10.23 8.18 9.52 8.12 8.83 7.97C6.39 7.42 4.41 6.14 2.86 4.19C2.71 4 2.56 3.8 2.39 3.57C2.25 4.17 2.28 4.73 2.44 5.28C2.6 5.79 2.86 6.24 3.22 6.63C3.41 6.84 3.49 7.07 3.38 7.34C3.27 7.6 3.06 7.73 2.79 7.75C2.63 7.77 2.46 7.8 2.29 7.8C2.06 7.81 1.83 7.8 1.59 7.8Z" />
</svg>