<svg version="1.2" baseProfile="tiny-ps" xmlns="http://www.w3.org/2000/svg" viewBox="0 0 93 81" width="93" height="81">
	<title>Group 59</title>
	<style>
		tspan { white-space:pre }
		.shp0 { fill: #ffffff } 
		.shp1 { fill: #d8d8d8 } 
	</style>
	<g id="Group 59">
		<path id="Path 68" class="shp0" d="M74.2 0.08C64.86 16.26 55.74 32.07 46.5 48.08C45.12 46.56 44.38 44.83 43.46 43.24C35.17 28.88 26.91 14.51 18.63 0.14L0 0.14C15.53 27.04 30.89 53.64 46.38 80.45C61.89 53.58 77.25 26.98 92.7 0.21C92.18 0.15 91.9 0.1 91.62 0.1" />
		<path id="Path 69" class="shp1" d="M46.5 48.08C55.74 32.07 64.86 16.26 74.2 0.08L57.29 0.08C56.59 0.43 56.41 1.17 56.06 1.76C53.16 6.74 50.28 11.75 47.39 16.74C47.09 17.26 46.76 17.76 46.36 18.41C45.9 17.66 45.56 17.12 45.24 16.57C42.29 11.47 39.35 6.37 36.4 1.27C36.06 0.67 35.84 -0.01 34.91 0C29.48 0.07 24.06 0.1 18.63 0.14C26.91 14.51 35.17 28.88 43.46 43.24C44.38 44.83 45.12 46.56 46.5 48.08Z" />
	</g>
</svg>