<svg version="1.2" baseProfile="tiny-ps" xmlns="http://www.w3.org/2000/svg" viewBox="0 0 29 29" width="29" height="29">
	<title>call-icon</title>
	<style>
		tspan { white-space:pre }
		.shp0 { fill: #211e3b } 
	</style>
	<path id="Path 82" class="shp0" d="M25.78 18.66C24.97 18.66 24.16 18.56 23.36 18.43C22.53 18.28 21.72 18.02 20.9 17.84C20.22 17.68 19.57 17.8 19.01 18.22C17.94 19.02 16.88 19.83 15.82 20.64C15.69 20.74 15.6 20.76 15.46 20.67C14.82 20.27 14.17 19.9 13.54 19.49C11.02 17.85 9.18 15.59 7.78 12.96C7.74 12.89 7.75 12.76 7.8 12.7C8.56 11.67 9.31 10.64 10.11 9.64C10.66 8.94 10.86 8.2 10.59 7.36C10.07 5.69 9.83 3.99 9.78 2.25C9.74 0.94 8.77 0.02 7.46 0.01C5.75 0 4.03 0 2.32 0.01C0.96 0.02 -0.01 1.04 0 2.4C0.01 4.25 0.21 6.09 0.61 7.91C1.33 11.18 2.63 14.21 4.52 16.97C6.84 20.38 9.8 23.11 13.4 25.13C17.35 27.34 21.6 28.44 26.12 28.47C26.75 28.47 27.3 28.26 27.76 27.82C28.15 27.45 28.34 26.98 28.46 26.47L28.46 20.69C28.15 19.23 27.09 18.66 25.78 18.66Z" />
</svg>