<svg version="1.2" baseProfile="tiny-ps" xmlns="http://www.w3.org/2000/svg" viewBox="0 0 16 4" width="16" height="4">
	<title>Path 3901</title>
	<style>
		tspan { white-space:pre }
		.shp0 { fill: #ffffff } 
	</style>
	<path id="Path 3901" class="shp0" d="M1.68 3.14C5.93 3.13 10.18 3.13 14.43 3.13C14.77 3.13 15.07 3.06 15.36 2.89C16.13 2.45 16.34 1.33 15.79 0.63C15.44 0.2 14.99 0 14.45 0C11.38 0 8.32 0 5.25 0C4.05 0 2.85 0 1.65 0C1.09 0 0.63 0.2 0.31 0.66C0.17 0.85 0.1 1.09 0 1.32L0 1.82C0.01 1.84 0.02 1.85 0.03 1.87C0.2 2.66 0.88 3.14 1.68 3.14Z" />
</svg>