<svg version="1.2" baseProfile="tiny-ps" xmlns="http://www.w3.org/2000/svg" viewBox="0 0 16 16" width="16" height="16">
	<title>Path 3903</title>
	<style>
		tspan { white-space:pre }
		.shp0 { fill: #211e3b } 
	</style>
	<path id="Path 3903" class="shp0" d="M6.93 0.48C6.67 0.78 6.57 1.13 6.57 1.51C6.57 3.05 6.57 4.59 6.57 6.12C6.57 6.42 6.48 6.51 6.18 6.51C4.69 6.51 3.21 6.51 1.73 6.51C1.56 6.51 1.39 6.52 1.23 6.54C0.3 6.63 -0.28 7.71 0.14 8.54C0.43 9.09 0.9 9.35 1.52 9.35C3.07 9.36 4.62 9.35 6.17 9.35C6.48 9.35 6.57 9.44 6.57 9.75C6.57 11.28 6.56 12.81 6.57 14.34C6.57 14.53 6.6 14.73 6.66 14.91C6.83 15.41 7.19 15.72 7.71 15.83C8.23 15.94 8.68 15.79 9.05 15.4C9.33 15.11 9.43 14.75 9.43 14.35C9.43 12.82 9.43 11.29 9.43 9.75C9.43 9.44 9.52 9.35 9.83 9.35C11.32 9.35 12.82 9.35 14.31 9.35C14.46 9.35 14.61 9.35 14.76 9.33C15.35 9.24 15.75 8.91 15.93 8.35C16.1 7.78 15.95 7.29 15.52 6.88C15.23 6.61 14.87 6.51 14.48 6.51C12.93 6.51 11.39 6.51 9.84 6.51C9.51 6.51 9.43 6.43 9.43 6.11C9.43 4.58 9.43 3.04 9.43 1.51C9.43 1.01 9.27 0.58 8.85 0.29C8.65 0.16 8.41 0.09 8.19 0L7.81 0C7.78 0.01 7.74 0.02 7.71 0.03C7.4 0.1 7.14 0.25 6.93 0.48Z" />
</svg>